<svg xmlns="http://www.w3.org/2000/svg" xmlns:xlink="http://www.w3.org/1999/xlink" width="923" zoomAndPan="magnify" viewBox="0 0 692.25 335.249999" height="447" preserveAspectRatio="xMidYMid meet" version="1.0"><defs><g/><clipPath id="5cd7538367"><path d="M 0.398438 0 L 641 0 L 641 334.5 L 0.398438 334.5 Z M 0.398438 0 " clip-rule="nonzero"/></clipPath></defs><g clip-path="url(#5cd7538367)"><path stroke-linecap="butt" transform="matrix(1.105258, 0, 0, 1.105258, 50.865631, 95.147267)" fill="none" stroke-linejoin="miter" d="M 37.860206 113.937943 C 44.953429 116.645172 52.912541 117.998787 61.734009 117.998787 L 78.39089 117.998787 L 78.39089 96.457584 L 62.373706 96.457584 C 57.535329 96.457584 53.138733 95.630571 49.176848 93.976546 C 45.243237 92.322521 41.857433 90.039401 39.026506 87.13072 C 36.220318 84.200833 34.06443 80.79029 32.558843 76.906158 C 31.08153 72.997287 30.342874 68.720855 30.342874 64.083929 C 30.342874 59.471744 31.08153 55.223585 32.558843 51.339454 C 34.06443 47.430582 36.220318 44.009437 39.026506 41.076016 C 41.857433 38.142595 45.243237 35.863009 49.176848 34.233724 C 53.138733 32.579699 57.535329 31.752686 62.373706 31.752686 L 78.39089 31.752686 L 78.39089 10.207949 L 61.734009 10.207949 C 52.912541 10.207949 44.978169 11.572166 37.934425 14.304135 C 30.918955 17.011364 24.914278 20.835414 19.927463 25.772749 C 14.965388 30.685345 11.141338 36.400214 8.458849 42.917356 C 5.801099 49.434498 4.475759 56.488844 4.475759 64.083929 C 4.475759 71.703755 5.801099 78.772238 8.458849 85.28938 C 11.141338 91.806521 14.937114 97.535527 19.853244 102.472863 C 24.79058 107.385459 30.791722 111.205974 37.860206 113.937943 Z M 67.724548 25.924722 C 70.509531 28.68143 73.803444 30.059784 77.613357 30.059784 C 81.398529 30.059784 84.68184 28.68143 87.463288 25.924722 C 90.248271 23.139739 91.637228 19.845826 91.637228 16.035913 C 91.637228 12.25074 90.248271 8.953293 87.463288 6.147105 C 84.68184 3.316177 81.398529 1.898946 77.613357 1.898946 C 73.803444 1.898946 70.509531 3.316177 67.724548 6.147105 C 64.96784 8.953293 63.589485 12.25074 63.589485 16.035913 C 63.589485 19.845826 64.96784 23.139739 67.724548 25.924722 Z M 65.621674 39.008484 L 65.621674 117.998787 L 89.643915 117.998787 L 89.643915 39.008484 Z M 80.249901 72.583781 L 80.249901 117.998787 L 104.088361 117.998787 L 104.088361 73.184602 C 104.088361 70.399619 104.752799 67.8585 106.078139 65.55064 C 107.431754 63.246314 109.262491 61.40144 111.570351 60.023086 C 113.874677 58.644731 116.518289 57.955554 119.501189 57.955554 C 122.385131 57.955554 124.979264 58.644731 127.28359 60.023086 C 129.591449 61.40144 131.40805 63.246314 132.736925 65.55064 C 134.090539 67.8585 134.765579 70.399619 134.765579 73.184602 L 134.765579 117.998787 L 158.60404 117.998787 L 158.60404 72.583781 C 158.60404 66.013625 157.06311 60.061962 153.977717 54.721723 C 150.920598 49.385018 146.485125 45.122723 140.671297 41.938371 C 134.878675 38.757553 127.873808 37.16361 119.653162 37.16361 C 111.556214 37.16361 104.551347 38.757553 98.635026 41.938371 C 92.74698 45.122723 88.209013 49.385018 85.024661 54.721723 C 81.84031 60.061962 80.249901 66.013625 80.249901 72.583781 Z M 167.220521 112.997835 C 174.013334 116.334159 181.873487 117.998787 190.793913 117.998787 L 214.218867 117.998787 L 214.218867 98.298923 L 190.044654 98.298923 C 186.757809 98.298923 183.778443 97.860678 181.095954 96.984186 C 178.438204 96.104159 176.232837 94.750545 174.476319 92.923342 C 172.723335 91.067865 171.546433 88.798882 170.942078 86.116392 L 222.676308 86.116392 C 222.877759 85.087928 223.054472 83.684834 223.20291 81.90711 C 223.379622 80.101113 223.467978 78.535444 223.467978 77.206569 C 223.467978 69.487785 222.026007 62.631356 219.142066 56.640816 C 216.261659 50.625537 212.024103 45.875516 206.436467 42.390754 C 200.845297 38.905991 193.889909 37.16361 185.570304 37.16361 C 178.275629 37.16361 171.620652 38.831772 165.605373 42.164562 C 159.614833 45.500887 154.815333 50.247373 151.203338 56.414625 C 147.619616 62.557137 145.827756 69.936634 145.827756 78.560184 C 145.827756 86.38146 147.693836 93.248492 151.429529 99.164813 C 155.189962 105.052859 160.452448 109.665045 167.220521 112.997835 Z M 200.343434 71.19129 L 170.341256 71.19129 C 170.641667 69.335813 171.11879 67.519212 171.76909 65.737955 C 172.447664 63.935491 173.398375 62.341548 174.628292 60.963194 C 175.854673 59.5601 177.399137 58.457417 179.25108 57.655144 C 181.106557 56.828131 183.212965 56.414625 185.570304 56.414625 C 187.422247 56.414625 189.090409 56.679693 190.567722 57.206295 C 192.073309 57.704623 193.388047 58.3938 194.51547 59.273826 C 195.646427 60.125579 196.636015 61.139906 197.487767 62.316809 C 198.364259 63.497245 199.003957 64.861463 199.403326 66.416529 C 199.830969 67.943321 200.145517 69.537264 200.343434 71.19129 Z M 239.294312 113.937943 C 246.387535 116.645172 254.343113 117.998787 263.168115 117.998787 L 279.824996 117.998787 L 279.824996 96.457584 L 263.807813 96.457584 C 258.969436 96.457584 254.569305 95.630571 250.610954 93.976546 C 246.673809 92.322521 243.29154 90.039401 240.457078 87.13072 C 237.65089 84.200833 235.495002 80.79029 233.99295 76.906158 C 232.512102 72.997287 231.773446 68.720855 231.773446 64.083929 C 231.773446 59.471744 232.512102 55.223585 233.99295 51.339454 C 235.495002 47.430582 237.65089 44.009437 240.457078 41.076016 C 243.29154 38.142595 246.673809 35.863009 250.610954 34.233724 C 254.569305 32.579699 258.969436 31.752686 263.807813 31.752686 L 279.824996 31.752686 L 279.824996 10.207949 L 263.168115 10.207949 C 254.343113 10.207949 246.412275 11.572166 239.368531 14.304135 C 232.349527 17.011364 226.348385 20.835414 221.358036 25.772749 C 216.39596 30.685345 212.571911 36.400214 209.892955 42.917356 C 207.235206 49.434498 205.906331 56.488844 205.906331 64.083929 C 205.906331 71.703755 207.235206 78.772238 209.892955 85.28938 C 212.571911 91.806521 216.37122 97.535527 221.283816 102.472863 C 226.221152 107.385459 232.225829 111.205974 239.294312 113.937943 Z M 267.052247 117.998787 L 267.052247 5.581626 L 290.890707 5.581626 L 290.890707 117.998787 Z M 300.069133 115.143119 C 305.981919 118.274458 312.99032 119.843661 321.083734 119.843661 C 329.30438 119.843661 336.312782 118.274458 342.101869 115.143119 C 347.915697 112.008247 352.354705 107.749486 355.411824 102.359767 C 358.493683 96.970049 360.034612 90.993646 360.034612 84.427025 L 360.034612 39.008484 L 336.199686 39.008484 L 336.199686 83.822669 C 336.199686 86.579378 335.521111 89.124032 334.167497 91.456632 C 332.838622 93.760957 331.022022 95.605831 328.717696 96.984186 C 326.409836 98.36254 323.815703 99.051717 320.935296 99.051717 C 317.952396 99.051717 315.308783 98.36254 313.000923 96.984186 C 310.696598 95.605831 308.86586 93.760957 307.512246 91.456632 C 306.183371 89.124032 305.518933 86.579378 305.518933 83.822669 L 305.518933 39.008484 L 281.684007 39.008484 L 281.684007 84.427025 C 281.684007 90.993646 283.274416 96.970049 286.458768 102.359767 C 289.639585 107.749486 294.177552 112.008247 300.069133 115.143119 Z M 370.382872 114.616517 C 376.748041 118.10128 384.194688 119.843661 392.715745 119.843661 C 399.384859 119.843661 405.311783 118.815197 410.500049 116.758268 C 415.688316 114.704874 420.09905 111.757316 423.73225 107.922664 C 427.368985 104.063272 430.16457 99.514703 432.119006 94.276956 C 434.073442 89.035676 435.052427 83.349081 435.052427 77.206569 C 435.052427 69.187374 433.433744 62.203713 430.199913 56.266187 C 426.966082 50.300387 422.516471 45.624585 416.854616 42.242316 C 411.213966 38.856512 404.647345 37.16361 397.151218 37.16361 C 393.970401 37.16361 390.962761 37.577117 388.128299 38.404129 C 385.322111 39.206402 382.76332 40.411578 380.458995 42.016124 C 378.154669 43.59593 376.221439 45.46201 374.669907 47.617897 L 374.217524 47.617897 L 374.217524 5.581626 L 350.343721 5.581626 L 350.343721 77.019254 C 350.343721 85.667544 352.086102 93.223752 355.570865 99.691415 C 359.076832 106.155543 364.017702 111.131755 370.382872 114.616517 Z M 402.22639 96.531803 C 399.572174 98.31306 396.401959 99.200155 392.715745 99.200155 C 389.004791 99.200155 385.785097 98.31306 383.053128 96.531803 C 380.345899 94.725805 378.264231 92.258904 376.811657 89.124032 C 375.383824 85.992694 374.669907 82.469055 374.669907 78.560184 C 374.669907 74.676052 375.383824 71.19129 376.811657 68.109431 C 378.264231 65.024038 380.345899 62.592479 383.053128 60.814756 C 385.785097 59.008758 389.004791 58.107527 392.715745 58.107527 C 396.401959 58.107527 399.572174 59.008758 402.22639 60.814756 C 404.908879 62.592479 406.990547 65.024038 408.46786 68.109431 C 409.973447 71.19129 410.726241 74.676052 410.726241 78.560184 C 410.726241 82.469055 409.973447 85.992694 408.46786 89.124032 C 406.990547 92.258904 404.908879 94.725805 402.22639 96.531803 Z M 402.22639 96.531803 " stroke="#ffffff" stroke-width="17.325001" stroke-opacity="1" stroke-miterlimit="4"/></g><g fill="#1c1c3b" fill-opacity="1"><g transform="translate(50.865631, 225.567747)"><g><path d="M 68.25 0 C 58.488281 0 49.691406 -1.5 41.859375 -4.5 C 34.035156 -7.507812 27.398438 -11.738281 21.953125 -17.1875 C 16.503906 -22.632812 12.304688 -28.957031 9.359375 -36.15625 C 6.410156 -43.363281 4.9375 -51.171875 4.9375 -59.578125 C 4.9375 -67.972656 6.410156 -75.769531 9.359375 -82.96875 C 12.304688 -90.175781 16.53125 -96.503906 22.03125 -101.953125 C 27.539062 -107.398438 34.179688 -111.625 41.953125 -114.625 C 49.722656 -117.632812 58.488281 -119.140625 68.25 -119.140625 L 86.640625 -119.140625 L 86.640625 -95.3125 L 68.9375 -95.3125 C 63.601562 -95.3125 58.75 -94.40625 54.375 -92.59375 C 50.007812 -90.78125 46.265625 -88.253906 43.140625 -85.015625 C 40.023438 -81.785156 37.644531 -78.015625 36 -73.703125 C 34.351562 -69.390625 33.53125 -64.679688 33.53125 -59.578125 C 33.53125 -54.460938 34.351562 -49.75 36 -45.4375 C 37.644531 -41.125 40.023438 -37.351562 43.140625 -34.125 C 46.265625 -30.894531 50.007812 -28.367188 54.375 -26.546875 C 58.75 -24.734375 63.601562 -23.828125 68.9375 -23.828125 L 86.640625 -23.828125 L 86.640625 0 Z M 68.25 0 "/></g></g></g><g fill="#1c1c3b" fill-opacity="1"><g transform="translate(113.502856, 225.567747)"><g><path d="M 9.875 0 L 9.875 -87.3125 L 36.421875 -87.3125 L 36.421875 0 Z M 23.140625 -97.1875 C 18.941406 -97.1875 15.3125 -98.71875 12.25 -101.78125 C 9.1875 -104.851562 7.65625 -108.488281 7.65625 -112.6875 C 7.65625 -116.882812 9.1875 -120.539062 12.25 -123.65625 C 15.3125 -126.78125 18.941406 -128.34375 23.140625 -128.34375 C 27.335938 -128.34375 30.96875 -126.78125 34.03125 -123.65625 C 37.09375 -120.539062 38.625 -116.882812 38.625 -112.6875 C 38.625 -108.488281 37.09375 -104.851562 34.03125 -101.78125 C 30.96875 -98.71875 27.335938 -97.1875 23.140625 -97.1875 Z M 23.140625 -97.1875 "/></g></g></g><g fill="#1c1c3b" fill-opacity="1"><g transform="translate(129.672803, 225.567747)"><g><path d="M 9.875 0 L 9.875 -50.203125 C 9.875 -57.472656 11.628906 -64.054688 15.140625 -69.953125 C 18.660156 -75.847656 23.679688 -80.554688 30.203125 -84.078125 C 36.734375 -87.597656 44.476562 -89.359375 53.4375 -89.359375 C 62.519531 -89.359375 70.265625 -87.597656 76.671875 -84.078125 C 83.085938 -80.554688 87.992188 -75.847656 91.390625 -69.953125 C 94.796875 -64.054688 96.5 -57.472656 96.5 -50.203125 L 96.5 0 L 70.125 0 L 70.125 -49.53125 C 70.125 -52.59375 69.382812 -55.398438 67.90625 -57.953125 C 66.4375 -60.503906 64.425781 -62.546875 61.875 -64.078125 C 59.320312 -65.609375 56.457031 -66.375 53.28125 -66.375 C 49.988281 -66.375 47.0625 -65.609375 44.5 -64.078125 C 41.945312 -62.546875 39.929688 -60.503906 38.453125 -57.953125 C 36.984375 -55.398438 36.25 -52.59375 36.25 -49.53125 L 36.25 0 Z M 9.875 0 "/></g></g></g><g fill="#1c1c3b" fill-opacity="1"><g transform="translate(206.267249, 225.567747)"><g><path d="M 55.484375 0 C 45.609375 0 36.925781 -1.84375 29.4375 -5.53125 C 21.957031 -9.21875 16.144531 -14.320312 12 -20.84375 C 7.851562 -27.375 5.78125 -34.953125 5.78125 -43.578125 C 5.78125 -53.109375 7.765625 -61.273438 11.734375 -68.078125 C 15.710938 -74.890625 21.019531 -80.140625 27.65625 -83.828125 C 34.289062 -87.515625 41.640625 -89.359375 49.703125 -89.359375 C 58.890625 -89.359375 66.570312 -87.425781 72.75 -83.5625 C 78.9375 -79.707031 83.617188 -74.460938 86.796875 -67.828125 C 89.972656 -61.191406 91.5625 -53.617188 91.5625 -45.109375 C 91.5625 -43.628906 91.476562 -41.894531 91.3125 -39.90625 C 91.144531 -37.925781 90.945312 -36.367188 90.71875 -35.234375 L 33.53125 -35.234375 C 34.207031 -32.285156 35.507812 -29.785156 37.4375 -27.734375 C 39.375 -25.691406 41.816406 -24.1875 44.765625 -23.21875 C 47.710938 -22.257812 51.003906 -21.78125 54.640625 -21.78125 L 81.359375 -21.78125 L 81.359375 0 Z M 32.84375 -51.734375 L 66.03125 -51.734375 C 65.8125 -53.554688 65.472656 -55.316406 65.015625 -57.015625 C 64.566406 -58.722656 63.859375 -60.226562 62.890625 -61.53125 C 61.921875 -62.832031 60.8125 -63.960938 59.5625 -64.921875 C 58.320312 -65.890625 56.878906 -66.65625 55.234375 -67.21875 C 53.585938 -67.789062 51.742188 -68.078125 49.703125 -68.078125 C 47.085938 -68.078125 44.757812 -67.625 42.71875 -66.71875 C 40.675781 -65.8125 38.972656 -64.59375 37.609375 -63.0625 C 36.253906 -61.53125 35.207031 -59.769531 34.46875 -57.78125 C 33.726562 -55.800781 33.1875 -53.785156 32.84375 -51.734375 Z M 32.84375 -51.734375 "/></g></g></g><g fill="#1c1c3b" fill-opacity="1"><g transform="translate(273.500146, 225.567747)"><g><path d="M 68.25 0 C 58.488281 0 49.691406 -1.5 41.859375 -4.5 C 34.035156 -7.507812 27.398438 -11.738281 21.953125 -17.1875 C 16.503906 -22.632812 12.304688 -28.957031 9.359375 -36.15625 C 6.410156 -43.363281 4.9375 -51.171875 4.9375 -59.578125 C 4.9375 -67.972656 6.410156 -75.769531 9.359375 -82.96875 C 12.304688 -90.175781 16.53125 -96.503906 22.03125 -101.953125 C 27.539062 -107.398438 34.179688 -111.625 41.953125 -114.625 C 49.722656 -117.632812 58.488281 -119.140625 68.25 -119.140625 L 86.640625 -119.140625 L 86.640625 -95.3125 L 68.9375 -95.3125 C 63.601562 -95.3125 58.75 -94.40625 54.375 -92.59375 C 50.007812 -90.78125 46.265625 -88.253906 43.140625 -85.015625 C 40.023438 -81.785156 37.644531 -78.015625 36 -73.703125 C 34.351562 -69.390625 33.53125 -64.679688 33.53125 -59.578125 C 33.53125 -54.460938 34.351562 -49.75 36 -45.4375 C 37.644531 -41.125 40.023438 -37.351562 43.140625 -34.125 C 46.265625 -30.894531 50.007812 -28.367188 54.375 -26.546875 C 58.75 -24.734375 63.601562 -23.828125 68.9375 -23.828125 L 86.640625 -23.828125 L 86.640625 0 Z M 68.25 0 "/></g></g></g><g fill="#1c1c3b" fill-opacity="1"><g transform="translate(336.137358, 225.567747)"><g><path d="M 9.875 0 L 9.875 -124.25 L 36.25 -124.25 L 36.25 0 Z M 9.875 0 "/></g></g></g><g fill="#1c1c3b" fill-opacity="1"><g transform="translate(352.307293, 225.567747)"><g><path d="M 53.4375 2.046875 C 44.476562 2.046875 36.734375 0.316406 30.203125 -3.140625 C 23.679688 -6.609375 18.660156 -11.320312 15.140625 -17.28125 C 11.628906 -23.238281 9.875 -29.847656 9.875 -37.109375 L 9.875 -87.3125 L 36.25 -87.3125 L 36.25 -37.78125 C 36.25 -34.71875 36.984375 -31.910156 38.453125 -29.359375 C 39.929688 -26.804688 41.945312 -24.765625 44.5 -23.234375 C 47.0625 -21.703125 49.988281 -20.9375 53.28125 -20.9375 C 56.457031 -20.9375 59.320312 -21.703125 61.875 -23.234375 C 64.425781 -24.765625 66.4375 -26.804688 67.90625 -29.359375 C 69.382812 -31.910156 70.125 -34.71875 70.125 -37.78125 L 70.125 -87.3125 L 96.5 -87.3125 L 96.5 -37.109375 C 96.5 -29.847656 94.796875 -23.238281 91.390625 -17.28125 C 87.992188 -11.320312 83.085938 -6.609375 76.671875 -3.140625 C 70.265625 0.316406 62.519531 2.046875 53.4375 2.046875 Z M 53.4375 2.046875 "/></g></g></g><g fill="#1c1c3b" fill-opacity="1"><g transform="translate(428.901747, 225.567747)"><g><path d="M 56 2.046875 C 46.582031 2.046875 38.351562 0.117188 31.3125 -3.734375 C 24.28125 -7.597656 18.832031 -13.101562 14.96875 -20.25 C 11.113281 -27.40625 9.1875 -35.75 9.1875 -45.28125 L 9.1875 -124.25 L 35.578125 -124.25 L 35.578125 -77.78125 L 36.078125 -77.78125 C 37.785156 -80.164062 39.914062 -82.238281 42.46875 -84 C 45.019531 -85.757812 47.851562 -87.09375 50.96875 -88 C 54.09375 -88.90625 57.414062 -89.359375 60.9375 -89.359375 C 69.21875 -89.359375 76.476562 -87.484375 82.71875 -83.734375 C 88.957031 -79.992188 93.863281 -74.832031 97.4375 -68.25 C 101.007812 -61.664062 102.796875 -53.953125 102.796875 -45.109375 C 102.796875 -38.296875 101.71875 -31.992188 99.5625 -26.203125 C 97.40625 -20.421875 94.3125 -15.398438 90.28125 -11.140625 C 86.257812 -6.890625 81.382812 -3.628906 75.65625 -1.359375 C 69.925781 0.910156 63.375 2.046875 56 2.046875 Z M 56 -20.765625 C 60.082031 -20.765625 63.597656 -21.753906 66.546875 -23.734375 C 69.492188 -25.722656 71.789062 -28.445312 73.4375 -31.90625 C 75.082031 -35.375 75.90625 -39.265625 75.90625 -43.578125 C 75.90625 -47.890625 75.082031 -51.742188 73.4375 -55.140625 C 71.789062 -58.546875 69.492188 -61.238281 66.546875 -63.21875 C 63.597656 -65.207031 60.082031 -66.203125 56 -66.203125 C 51.914062 -66.203125 48.367188 -65.207031 45.359375 -63.21875 C 42.347656 -61.238281 40.046875 -58.546875 38.453125 -55.140625 C 36.867188 -51.742188 36.078125 -47.890625 36.078125 -43.578125 C 36.078125 -39.265625 36.867188 -35.375 38.453125 -31.90625 C 40.046875 -28.445312 42.347656 -25.722656 45.359375 -23.734375 C 48.367188 -21.753906 51.914062 -20.765625 56 -20.765625 Z M 56 -20.765625 "/></g></g></g><g fill="#1c1c3b" fill-opacity="1"><g transform="translate(507.717242, 225.567747)"><g/></g></g><path stroke-linecap="butt" transform="matrix(1.105258, 0, 0, 1.105258, 495.864583, 95.147267)" fill="none" stroke-linejoin="miter" d="M 54.581651 74.12471 L 54.581651 99.991825 L 76.122855 99.991825 L 76.122855 74.12471 L 102.481229 74.12471 L 102.481229 54.08556 L 76.122855 54.08556 L 76.122855 28.218445 L 54.581651 28.218445 L 54.581651 54.08556 L 28.223277 54.08556 L 28.223277 74.12471 Z M 54.581651 74.12471 " stroke="#ffffff" stroke-width="17.325001" stroke-opacity="1" stroke-miterlimit="4"/><g fill="#1c1c3b" fill-opacity="1"><g transform="translate(519.247704, 225.567747)"><g><path d="M 36.9375 -19.90625 L 36.9375 -48.515625 L 7.828125 -48.515625 L 7.828125 -70.640625 L 36.9375 -70.640625 L 36.9375 -99.234375 L 60.765625 -99.234375 L 60.765625 -70.640625 L 89.875 -70.640625 L 89.875 -48.515625 L 60.765625 -48.515625 L 60.765625 -19.90625 Z M 36.9375 -19.90625 "/></g></g></g></svg>